<svg width="36" height="33" viewBox="0 0 36 33" fill="none" xmlns="http://www.w3.org/2000/svg">
<path d="M29.3906 10.9453C31.3594 11.6484 32.9531 12.4922 34.1719 13.4766C35.3906 14.4141 36 15.4219 36 16.5C36 17.5781 35.3438 18.6328 34.0312 19.6641C32.7656 20.6953 31.0781 21.5391 28.9688 22.1953C28.6875 22.2891 28.4766 22.3594 28.3359 22.4062C28.4297 22.7344 28.5 23.0625 28.5469 23.3906C28.8281 24.75 28.9453 25.9922 28.8984 27.1172C28.8516 28.2422 28.6406 29.2266 28.2656 30.0703C27.9375 30.9141 27.4688 31.5 26.8594 31.8281C25.9219 32.3438 24.75 32.3672 23.3438 31.8984C21.9844 31.4297 20.5312 30.5625 18.9844 29.2969C18.6094 28.9219 18.3047 28.6172 18.0703 28.3828C17.8359 28.6172 17.5781 28.8516 17.2969 29.0859C15.75 30.4453 14.2266 31.3594 12.7266 31.8281C11.2734 32.3438 10.0781 32.3438 9.14062 31.8281C8.20312 31.3125 7.59375 30.3281 7.3125 28.875C7.03125 27.4219 7.07812 25.7109 7.45312 23.7422C7.54688 23.3203 7.64062 22.8984 7.73438 22.4766C7.5 22.4297 7.17188 22.3359 6.75 22.1953C4.73438 21.4922 3.09375 20.625 1.82812 19.5938C0.609375 18.5625 0 17.5312 0 16.5C0 15.4688 0.585938 14.4609 1.75781 13.4766C2.92969 12.4922 4.5 11.6719 6.46875 11.0156C6.89062 10.875 7.3125 10.7344 7.73438 10.5938C7.64062 10.2188 7.57031 9.82031 7.52344 9.39844C7.10156 7.42969 7.03125 5.71875 7.3125 4.26562C7.59375 2.76563 8.20312 1.73438 9.14062 1.17188C10.0781 0.65625 11.2969 0.65625 12.7969 1.17188C14.2969 1.6875 15.8438 2.67187 17.4375 4.125C17.625 4.3125 17.8125 4.5 18 4.6875C18.3281 4.35937 18.6328 4.07812 18.9141 3.84375C20.4609 2.48438 21.9141 1.57031 23.2734 1.10156C24.6797 0.632812 25.8516 0.65625 26.7891 1.17188C27.7734 1.6875 28.4062 2.74219 28.6875 4.33594C28.9688 5.88281 28.875 7.71094 28.4062 9.82031C28.3594 10.1484 28.3125 10.4062 28.2656 10.5938C28.6406 10.6875 29.0156 10.8047 29.3906 10.9453ZM19.8984 4.96875C19.6172 5.20312 19.3359 5.46094 19.0547 5.74219C20.1328 6.91406 21.1406 8.15625 22.0781 9.46875C23.625 9.60938 25.1953 9.86719 26.7891 10.2422C26.8359 10.0547 26.8828 9.82031 26.9297 9.53906C27.3047 7.71094 27.3984 6.16406 27.2109 4.89844C27.0703 3.63281 26.6953 2.8125 26.0859 2.4375C25.4766 2.10937 24.6094 2.17969 23.4844 2.64844C22.3594 3.11719 21.1641 3.89063 19.8984 4.96875ZM11.7422 20.1562C11.4609 19.5938 11.1328 18.9609 10.7578 18.2578C10.2891 19.3828 9.91406 20.4375 9.63281 21.4219C10.6641 21.6562 11.7422 21.8203 12.8672 21.9141C12.5391 21.4453 12.1641 20.8594 11.7422 20.1562ZM9.63281 11.6484C9.96094 12.6797 10.3359 13.7109 10.7578 14.7422C11.0391 14.1797 11.3672 13.5703 11.7422 12.9141C12.0703 12.3516 12.4219 11.7422 12.7969 11.0859C11.6719 11.2266 10.6172 11.4141 9.63281 11.6484ZM11.5312 16.5C12.0469 17.5312 12.5625 18.4922 13.0781 19.3828C13.5938 20.3203 14.1562 21.2344 14.7656 22.125C15.8438 22.1719 16.9219 22.1953 18 22.1953C19.125 22.1953 20.2031 22.1719 21.2344 22.125C21.8906 21.1406 22.4531 20.2031 22.9219 19.3125C23.4844 18.375 24 17.4375 24.4688 16.5C23.9531 15.4688 23.4375 14.5078 22.9219 13.6172C22.4062 12.7266 21.8438 11.8359 21.2344 10.9453C20.1562 10.8516 19.0781 10.8047 18 10.8047C16.9219 10.8047 15.8438 10.8516 14.7656 10.9453C14.1094 11.8828 13.5469 12.7969 13.0781 13.6875C12.5156 14.6719 12 15.6094 11.5312 16.5ZM24.2578 20.0859C23.8359 20.8359 23.4609 21.4453 23.1328 21.9141C24.2578 21.7734 25.3594 21.5859 26.4375 21.3516C26.1094 20.2734 25.7344 19.2422 25.3125 18.2578C24.9375 18.9609 24.5859 19.5703 24.2578 20.0859ZM25.2422 14.7422C25.7109 13.7109 26.0859 12.6797 26.3672 11.6484C25.3828 11.4141 24.3281 11.2266 23.2031 11.0859C23.5312 11.6953 23.8828 12.3047 24.2578 12.9141C24.5391 13.3828 24.8672 13.9922 25.2422 14.7422ZM18 6.79688C17.25 7.59375 16.5469 8.4375 15.8906 9.32812C17.2969 9.28125 18.7031 9.28125 20.1094 9.32812C19.4531 8.4375 18.75 7.59375 18 6.79688ZM9.84375 2.50781C9.28125 2.83594 8.90625 3.60938 8.71875 4.82812C8.57812 6 8.67188 7.42969 9 9.11719C9.09375 9.58594 9.16406 9.9375 9.21094 10.1719C10.8047 9.84375 12.375 9.60938 13.9219 9.46875C14.8594 8.15625 15.8672 6.91406 16.9453 5.74219C16.6172 5.41406 16.4531 5.25 16.4531 5.25C15.0938 4.03125 13.8047 3.1875 12.5859 2.71875C11.3672 2.20313 10.4531 2.13281 9.84375 2.50781ZM8.15625 21.0703C8.625 19.4766 9.1875 17.9531 9.84375 16.5C9.1875 15.0469 8.625 13.5469 8.15625 12C7.6875 12.1406 7.28906 12.2812 6.96094 12.4219C5.32031 12.9844 4.00781 13.6406 3.02344 14.3906C2.03906 15.1406 1.54688 15.8438 1.54688 16.5C1.64062 17.3906 2.0625 18.0938 2.8125 18.6094C3.9375 19.4531 5.41406 20.1797 7.24219 20.7891C7.57031 20.8828 7.875 20.9766 8.15625 21.0703ZM16.3125 27.9609C16.5469 27.7734 16.7812 27.5625 17.0156 27.3281C15.8906 26.1094 14.8828 24.8438 13.9922 23.5312C12.3984 23.4375 10.8047 23.2031 9.21094 22.8281C9.11719 23.2031 9.02344 23.6016 8.92969 24.0234C8.64844 25.7109 8.57812 27.1406 8.71875 28.3125C8.90625 29.4375 9.30469 30.1641 9.91406 30.4922C10.7109 30.8203 11.5312 30.7969 12.375 30.4219C13.8281 29.8594 15.1406 29.0391 16.3125 27.9609ZM18.0703 26.2031C18.8203 25.3594 19.5 24.5156 20.1094 23.6719C19.4531 23.7188 18.75 23.7422 18 23.7422C17.2969 23.7422 16.5938 23.7188 15.8906 23.6719C16.5938 24.6094 17.3203 25.4531 18.0703 26.2031ZM27.2812 28.3125C27.4688 26.7188 27.3984 25.1719 27.0703 23.6719C27.0234 23.3906 26.9531 23.1094 26.8594 22.8281C25.3125 23.1562 23.7188 23.3906 22.0781 23.5312C21.1875 24.8438 20.2031 26.1094 19.125 27.3281C19.5 27.7031 19.8047 27.9609 20.0391 28.1016C20.8359 28.8516 21.6328 29.4609 22.4297 29.9297C23.2734 30.3516 23.9766 30.6094 24.5391 30.7031C25.1484 30.7969 25.6641 30.75 26.0859 30.5625C26.7891 30 27.1875 29.25 27.2812 28.3125ZM28.5469 20.7891C29.6719 20.4141 30.6797 19.9688 31.5703 19.4531C32.5078 18.9375 33.2109 18.4219 33.6797 17.9062C34.1953 17.3906 34.4531 16.8984 34.4531 16.4297C34.4531 15.8203 33.9375 15.1406 32.9062 14.3906C31.875 13.5938 30.5391 12.9141 28.8984 12.3516C28.5234 12.2578 28.1719 12.1641 27.8438 12.0703C27.375 13.6172 26.8125 15.0938 26.1562 16.5C26.8594 18 27.4453 19.4766 27.9141 20.9297C28.0547 20.9297 28.2656 20.8828 28.5469 20.7891ZM20.25 18.8203C19.6406 19.4297 18.8906 19.7344 18 19.7344C17.1094 19.7344 16.3359 19.4297 15.6797 18.8203C15.0703 18.1641 14.7656 17.3906 14.7656 16.5C14.7656 15.6094 15.0703 14.8594 15.6797 14.25C16.3359 13.5938 17.1094 13.2656 18 13.2656C18.8906 13.2656 19.6406 13.5938 20.25 14.25C20.9062 14.8594 21.2344 15.6094 21.2344 16.5C21.2344 17.3906 20.9062 18.1641 20.25 18.8203Z" fill="white"/>
</svg>
