<svg width="491" height="440" viewBox="0 0 491 440" fill="none" xmlns="http://www.w3.org/2000/svg">
<g clip-path="url(#clip0)">
<g filter="url(#filter0_d)">
<path d="M245.5 440C381.086 440 491 426.456 491 409.749C491 393.041 381.086 379.498 245.5 379.498C109.914 379.498 0 393.041 0 409.749C0 426.456 109.914 440 245.5 440Z" fill="#8D8D8D"/>
</g>
<path d="M227.766 254.052V395.04L131.894 411.137L27.1546 398.37V256.828L131.894 247.391L227.766 254.052Z" fill="#6E6E6E"/>
<path opacity="0.1" d="M131.894 261.823V411.137L27.1546 398.37V256.828L131.894 261.823Z" fill="black"/>
<path opacity="0.1" d="M227.766 254.052L131.894 261.823L27.1546 256.828L131.894 247.391L227.766 254.052Z" fill="white"/>
<path d="M436.691 351.189V403.921L369.635 418.908L234.971 407.806V360.625L237.176 360.253L237.381 360.22L353.564 340.643L435.267 351.006L436.691 351.189Z" fill="#D0CDE1"/>
<path opacity="0.1" d="M369.635 368.396V418.908L234.971 407.806V360.625L237.176 360.254L369.635 368.396Z" fill="black"/>
<path opacity="0.1" d="M435.267 351.006L369.635 368.396L237.381 360.22L353.564 340.643L435.267 351.006Z" fill="white"/>
<path d="M191.191 307.339V415.577C215.186 421.742 240.347 421.742 264.342 415.577V307.339H191.191Z" fill="#3B7DD8"/>
<path d="M227.766 310.669C247.967 310.669 264.342 308.805 264.342 306.506C264.342 304.207 247.967 302.343 227.766 302.343C207.566 302.343 191.191 304.207 191.191 306.506C191.191 308.805 207.566 310.669 227.766 310.669Z" fill="#6C63FF"/>
<path opacity="0.1" d="M227.766 310.669C247.967 310.669 264.342 308.805 264.342 306.506C264.342 304.207 247.967 302.343 227.766 302.343C207.566 302.343 191.191 304.207 191.191 306.506C191.191 308.805 207.566 310.669 227.766 310.669Z" fill="black"/>
<path d="M264.272 157.848C264.767 159.004 265.292 160.173 265.83 161.322L264.676 161.864C264.132 160.702 263.602 159.521 263.101 158.351L264.272 157.848Z" fill="#E6E6E6"/>
<path d="M469.997 65.3444C470.724 66.8974 471.423 68.4799 472.074 70.0483L470.898 70.5381C469.923 68.1897 468.845 65.8231 467.708 63.5339L468.849 62.9657C469.239 63.7515 469.622 64.5444 469.997 65.3444ZM465.154 56.1171L464.054 56.7621C462.763 54.5522 461.382 52.364 459.949 50.2565L461.002 49.5383C462.451 51.6694 463.848 53.8825 465.154 56.1171ZM474.815 77.3313C475.643 79.7837 476.395 82.2916 477.051 84.7857L475.819 85.1102C475.171 82.645 474.427 80.1654 473.607 77.7406L474.815 77.3313ZM456.409 43.2597L455.407 44.0488C453.829 42.0409 452.162 40.0624 450.449 38.1687L451.394 37.3118C453.126 39.2278 454.813 41.2287 456.409 43.2597L456.409 43.2597ZM478.771 92.3772C479.255 94.9144 479.656 97.5028 479.964 100.07L478.699 100.222C478.394 97.6836 477.997 95.1248 477.519 92.6159L478.771 92.3772ZM445.981 31.7257L445.098 32.646C443.26 30.8757 441.337 29.1477 439.385 27.5107L440.204 26.5324C442.178 28.1881 444.121 29.9351 445.981 31.7257ZM480.625 107.838C480.755 110.425 480.796 113.047 480.748 115.631L479.474 115.607C479.521 113.053 479.481 110.46 479.352 107.902L480.625 107.838ZM434.082 21.7477L433.333 22.7801C431.269 21.2791 429.127 19.8302 426.968 18.4757L427.644 17.3936C429.828 18.7641 431.994 20.2291 434.082 21.7477ZM480.336 123.411C480.11 125.991 479.793 128.592 479.392 131.144L478.134 130.945C478.53 128.423 478.844 125.85 479.067 123.299L480.336 123.411ZM420.924 13.4906L420.323 14.6158C418.073 13.4099 415.754 12.2669 413.429 11.2183L413.952 10.0543C416.304 11.115 418.649 12.2709 420.924 13.4906ZM477.923 138.792C477.349 141.311 476.681 143.844 475.936 146.321L474.716 145.953C475.452 143.504 476.113 140.999 476.68 138.508L477.923 138.792ZM406.76 7.10154L406.318 8.2982C403.925 7.41014 401.471 6.59278 399.024 5.86952L399.385 4.64519C401.86 5.37693 404.341 6.20335 406.76 7.10154ZM473.442 153.695C472.531 156.114 471.526 158.532 470.454 160.881L469.295 160.35C470.355 158.028 471.349 155.637 472.25 153.245L473.442 153.695ZM391.856 2.69853L391.579 3.94391C389.091 3.38995 386.548 2.91468 384.021 2.53126L384.213 1.2698C386.767 1.65699 389.339 2.13802 391.856 2.69853ZM466.984 167.845C465.754 170.117 464.429 172.374 463.049 174.554L461.972 173.871C463.338 171.715 464.647 169.483 465.864 167.236L466.984 167.845ZM376.486 0.368653L376.383 1.64009C373.837 1.43123 371.252 1.30867 368.699 1.27584L368.716 0C371.298 0.0330044 373.912 0.15685 376.486 0.368653ZM458.666 180.977C457.138 183.058 455.519 185.111 453.854 187.081L452.882 186.256C454.528 184.309 456.129 182.278 457.639 180.221L458.666 180.977ZM360.936 0.167503L361.008 1.44163C358.457 1.58559 355.879 1.82029 353.344 2.13971L353.185 0.87345C355.749 0.550006 358.357 0.312414 360.936 0.167503ZM448.637 192.838C446.838 194.691 444.951 196.504 443.029 198.228L442.179 197.277C444.079 195.573 445.944 193.78 447.724 191.948L448.637 192.838ZM345.51 2.11296L345.757 3.36578C343.252 3.85937 340.735 4.44685 338.273 5.11127L337.941 3.87919C340.431 3.2071 342.978 2.61309 345.51 2.11296ZM437.063 203.216C435.026 204.803 432.908 206.339 430.767 207.781L430.056 206.722C432.173 205.296 434.267 203.777 436.28 202.209L437.063 203.216ZM330.512 6.16143L330.927 7.36799C328.519 8.19933 326.105 9.12616 323.752 10.1221L323.256 8.94671C325.635 7.93927 328.076 7.00226 330.512 6.16143ZM424.175 211.903C421.944 213.193 419.637 214.425 417.317 215.565L416.756 214.419C419.05 213.292 421.332 212.073 423.537 210.797L424.175 211.903ZM316.778 13.3579C314.497 14.51 312.229 15.7537 310.038 17.0544L309.388 15.9569C311.604 14.641 313.897 13.3833 316.204 12.2179L316.778 13.3579ZM303.565 21.2028C301.462 22.6561 299.385 24.1982 297.392 25.7875L296.599 24.7892C298.614 23.1819 300.714 21.6218 302.842 20.1522L303.565 21.2028ZM291.551 30.7874C289.672 32.512 287.828 34.3237 286.073 36.1725L285.15 35.2931C286.925 33.423 288.789 31.5906 290.69 29.8469L291.551 30.7874ZM280.978 41.9251C279.351 43.8946 277.773 45.9442 276.288 48.0164L275.253 47.2722C276.755 45.1762 278.351 43.1036 279.996 41.1117L280.978 41.9251ZM272.025 54.4172C270.681 56.5929 269.397 58.8404 268.208 61.0956L267.082 60.5002C268.284 58.219 269.582 55.9461 270.941 53.7454L272.025 54.4172ZM264.855 68.0213C263.821 70.3567 262.853 72.7583 261.98 75.1599L260.782 74.7231C261.666 72.2942 262.644 69.8654 263.69 67.5034L264.855 68.0213ZM259.597 82.4791C258.888 84.938 258.255 87.4501 257.716 89.9456L256.471 89.676C257.016 87.1522 257.655 84.6115 258.372 82.1253L259.597 82.4791ZM256.348 97.523C255.98 100.057 255.695 102.633 255.502 105.178L254.231 105.082C254.427 102.507 254.715 99.9021 255.087 97.3391L256.348 97.523ZM255.182 112.876C255.164 115.435 255.234 118.026 255.392 120.577L254.12 120.656C253.961 118.076 253.889 115.455 253.908 112.866L255.182 112.876ZM256.132 128.247C256.466 130.781 256.891 133.335 257.398 135.839L256.15 136.093C255.637 133.56 255.206 130.976 254.869 128.414L256.132 128.247ZM259.184 143.325C259.862 145.787 260.634 148.258 261.48 150.671L260.277 151.093C259.422 148.653 258.641 146.153 257.956 143.665L259.184 143.325Z" fill="#E6E6E6"/>
<path d="M409.573 217.646L410.054 218.828C408.862 219.314 407.657 219.783 406.47 220.221L406.03 219.024C407.202 218.59 408.395 218.127 409.573 217.646Z" fill="#E6E6E6"/>
<path d="M227.766 280.695C240.927 280.695 251.596 270.009 251.596 256.827C251.596 243.645 240.927 232.959 227.766 232.959C214.606 232.959 203.937 243.645 203.937 256.827C203.937 270.009 214.606 280.695 227.766 280.695Z" fill="#3B7DD8"/>
<g filter="url(#filter1_d)">
<path d="M37.0627 300.556H59.9522C61.5142 291.512 61.5142 282.266 59.9522 273.221H37.0627C39.6414 282.15 39.6414 291.628 37.0627 300.556Z" fill="#6C63FF"/>
</g>
<g filter="url(#filter2_d)">
<path d="M91.5061 329.432H68.6167C67.0546 320.387 67.0546 311.141 68.6167 302.097H91.5061C88.9275 311.026 88.9275 320.503 91.5061 329.432Z" fill="#FF6584"/>
</g>
<g filter="url(#filter3_d)">
<path d="M79.7343 373.825H102.624C104.186 364.781 104.186 355.535 102.624 346.49H79.7343C82.3129 355.419 82.3129 364.897 79.7343 373.825Z" fill="#6C63FF"/>
</g>
<g filter="url(#filter4_d)">
<path d="M140.096 211.839C148.836 198.828 152.63 183.11 150.792 167.536C148.954 151.963 141.604 137.565 130.077 126.953C118.549 116.341 103.606 110.219 87.9578 109.696C72.3097 109.173 56.9925 114.284 44.7839 124.102C32.5754 133.92 24.2839 147.795 21.413 163.211C18.5421 178.628 21.282 194.564 29.1358 208.13C36.9895 221.697 49.4371 231.995 64.2213 237.157C79.0054 242.32 95.1471 242.004 109.719 236.269C110.664 239.646 112.43 242.736 114.86 245.262C117.289 247.789 120.306 249.672 123.64 250.744C126.975 251.816 130.522 252.042 133.966 251.404C137.409 250.766 140.641 249.283 143.371 247.087C146.102 244.891 148.246 242.051 149.612 238.821C150.978 235.592 151.523 232.073 151.199 228.581C150.874 225.088 149.69 221.731 147.753 218.809C145.815 215.888 143.185 213.493 140.096 211.839Z" fill="#519CF4"/>
</g>
<path d="M124.646 162.121H46.7652V168.279H124.646V162.121Z" fill="white"/>
<path d="M124.646 172.385H46.7652V178.544H124.646V172.385Z" fill="white"/>
<path d="M124.646 182.649H46.7652V188.808H124.646V182.649Z" fill="white"/>
<path d="M412.942 352.034C412.815 351.825 409.816 346.81 408.777 336.396C407.823 326.842 408.436 310.737 416.775 288.273C432.572 245.715 413.134 211.377 412.936 211.035L413.895 210.478C413.945 210.565 418.961 219.32 421.924 233.26C425.839 251.743 424.413 270.96 417.814 288.66C402.044 331.145 413.768 351.257 413.888 351.455L412.942 352.034Z" fill="#3F3D56"/>
<path d="M406.765 208.536C410.744 208.536 413.97 205.306 413.97 201.32C413.97 197.335 410.744 194.105 406.765 194.105C402.786 194.105 399.561 197.335 399.561 201.32C399.561 205.306 402.786 208.536 406.765 208.536Z" fill="#6C63FF"/>
<path d="M429.486 235.18C433.465 235.18 436.691 231.949 436.691 227.964C436.691 223.978 433.465 220.748 429.486 220.748C425.508 220.748 422.282 223.978 422.282 227.964C422.282 231.949 425.508 235.18 429.486 235.18Z" fill="#3F3D56"/>
<path d="M413.97 252.942C417.948 252.942 421.174 249.711 421.174 245.726C421.174 241.741 417.948 238.51 413.97 238.51C409.991 238.51 406.765 241.741 406.765 245.726C406.765 249.711 409.991 252.942 413.97 252.942Z" fill="#6C63FF"/>
<path d="M432.812 267.929C436.79 267.929 440.016 264.698 440.016 260.713C440.016 256.728 436.79 253.497 432.812 253.497C428.833 253.497 425.607 256.728 425.607 260.713C425.607 264.698 428.833 267.929 432.812 267.929Z" fill="#6C63FF"/>
<path d="M408.428 291.242C412.407 291.242 415.632 288.011 415.632 284.026C415.632 280.04 412.407 276.81 408.428 276.81C404.449 276.81 401.223 280.04 401.223 284.026C401.223 288.011 404.449 291.242 408.428 291.242Z" fill="#3F3D56"/>
<path d="M417.295 352.299C417.295 352.299 410.09 334.537 431.703 321.215L417.295 352.299Z" fill="#3F3D56"/>
<path d="M408.434 351.977C408.434 351.977 405.156 333.088 379.779 333.25L408.434 351.977Z" fill="#3F3D56"/>
<path d="M364.341 122.918C377.702 122.918 388.534 112.069 388.534 98.6864C388.534 85.3037 377.702 74.4549 364.341 74.4549C350.98 74.4549 340.148 85.3037 340.148 98.6864C340.148 112.069 350.98 122.918 364.341 122.918Z" fill="#2F2E41"/>
<path d="M330.081 150.78L323.336 166.092L316.142 144.475C316.142 144.475 315.243 125.56 308.948 126.461C302.653 127.361 308.049 145.376 308.049 145.376C308.049 145.376 312.095 185.458 321.088 183.206C330.081 180.954 335.926 167.894 335.926 167.894L337.5 154.085L330.081 150.78Z" fill="#A0616A"/>
<path d="M355.036 116.328C355.036 116.328 357.734 131.189 351.888 134.342C346.043 137.495 374.37 136.594 374.82 131.64C374.82 131.64 368.525 116.328 368.525 112.725L355.036 116.328Z" fill="#A0616A"/>
<path d="M312.32 238.375C312.32 238.375 314.568 264.046 315.468 269.45C316.367 274.854 316.367 282.961 316.367 282.961C316.367 282.961 314.119 300.525 315.018 317.188L316.367 331.149H326.709L327.103 329.291L331.205 309.982C331.205 309.982 335.701 294.22 333.903 282.511L338.849 244.68L312.32 238.375Z" fill="#A0616A"/>
<path d="M344.244 247.382C344.244 247.382 355.036 281.16 357.734 284.762C360.431 288.365 364.028 296.472 364.028 296.472C364.028 296.472 371.672 315.387 375.719 318.539L380.215 326.646L387.859 324.394L385.611 306.38C385.611 306.38 384.712 291.518 374.82 278.457L369.874 248.283L344.244 247.382Z" fill="#A0616A"/>
<path d="M371.672 131.19C371.672 131.19 358.36 134.674 353.326 133.157C353.326 133.157 348.291 132.991 346.493 133.441C344.694 133.892 333.453 137.945 333.453 138.846C333.453 139.746 335.701 148.754 335.701 148.754C335.701 148.754 334.353 154.158 334.802 157.761C335.252 161.364 326.709 172.623 331.205 173.523C335.701 174.424 338.399 172.623 340.647 174.424C342.896 176.226 369.874 184.332 369.874 184.332L392.356 139.746C392.356 139.746 388.758 132.09 385.611 132.09C382.464 132.09 374.072 129.786 374.072 129.786L371.672 131.19Z" fill="#3F3D56"/>
<path d="M335.701 139.296L333.453 138.395C333.453 138.395 325.36 151.005 328.058 152.356C330.755 153.708 337.5 156.86 337.5 156.86L335.701 139.296Z" fill="#3F3D56"/>
<path d="M334.802 171.722L327.608 183.431C327.608 183.431 316.367 185.233 315.468 200.545C315.468 200.545 307.824 203.247 306.025 217.208C306.025 217.208 294.785 224.414 300.63 232.521C306.475 240.627 337.95 256.84 371.223 251.436C371.223 251.436 377.518 238.826 373.021 230.269C373.021 230.269 377.844 221.183 369.587 214.917C369.587 214.917 376.618 205.949 369.424 196.041L369.874 181.63L334.802 171.722Z" fill="#CCFF00"/>
<path d="M328.058 329.798H315.468C315.468 329.798 315.018 341.057 310.072 343.76C305.126 346.462 295.684 360.873 302.878 362.675C310.072 364.476 331.205 350.965 331.205 347.813C331.205 344.66 328.058 329.798 328.058 329.798Z" fill="#2F2E41"/>
<path d="M388.758 322.593L377.967 326.646C377.967 326.646 386.061 348.713 386.061 351.866C386.061 355.019 387.41 358.621 395.503 357.27C403.596 355.919 402.248 349.614 402.248 349.614L388.758 322.593Z" fill="#2F2E41"/>
<path d="M359.532 120.381C367.23 120.381 373.471 114.13 373.471 106.42C373.471 98.7092 367.23 92.4585 359.532 92.4585C351.834 92.4585 345.593 98.7092 345.593 106.42C345.593 114.13 351.834 120.381 359.532 120.381Z" fill="#A0616A"/>
<path d="M390.557 155.059C390.557 155.059 384.262 177.577 383.363 179.378L368.525 217.659C368.525 217.659 370.323 237.024 363.579 233.872C356.834 230.719 363.129 214.056 363.129 214.056L373.471 173.073L379.316 155.059H390.557Z" fill="#A0616A"/>
<path d="M386.96 136.143L392.356 139.746C392.356 139.746 396.852 157.31 392.356 156.86C387.859 156.41 377.518 159.112 377.068 158.211C376.618 157.31 386.96 136.143 386.96 136.143Z" fill="#3F3D56"/>
<path d="M371.855 83.3264C377.384 83.3264 381.866 78.8372 381.866 73.2995C381.866 67.7619 377.384 63.2727 371.855 63.2727C366.326 63.2727 361.844 67.7619 361.844 73.2995C361.844 78.8372 366.326 83.3264 371.855 83.3264Z" fill="#2F2E41"/>
<path d="M358.507 67.8684C358.507 65.3899 359.424 62.9993 361.08 61.1578C362.736 59.3162 365.014 58.1541 367.475 57.8957C367.129 57.8597 366.781 57.8416 366.432 57.8415C363.777 57.8415 361.231 58.8979 359.354 60.7783C357.476 62.6587 356.422 65.2091 356.422 67.8684C356.422 70.5277 357.476 73.078 359.354 74.9584C361.231 76.8388 363.777 77.8952 366.432 77.8952C366.781 77.8951 367.129 77.877 367.475 77.841C365.014 77.5826 362.736 76.4205 361.08 74.579C359.424 72.7374 358.507 70.3468 358.507 67.8684Z" fill="#2F2E41"/>
<path d="M360.294 100.809C369.509 100.809 376.979 96.3199 376.979 90.7823C376.979 85.2446 369.509 80.7554 360.294 80.7554C351.08 80.7554 343.61 85.2446 343.61 90.7823C343.61 96.3199 351.08 100.809 360.294 100.809Z" fill="#2F2E41"/>
<path d="M374.37 108.446C374.991 108.446 375.494 107.237 375.494 105.744C375.494 104.252 374.991 103.042 374.37 103.042C373.749 103.042 373.246 104.252 373.246 105.744C373.246 107.237 373.749 108.446 374.37 108.446Z" fill="#A0616A"/>
<g filter="url(#filter5_d)">
<path d="M310.886 48.5034H159.042V133.206H310.886V48.5034Z" fill="#519CF4"/>
</g>
<path d="M282.623 80.9186H186.939V83.7279H282.623V80.9186Z" fill="white"/>
<path d="M282.623 92.1555H186.939V94.9647H282.623V92.1555Z" fill="white"/>
<path d="M282.623 103.392H186.939V106.202H282.623V103.392Z" fill="white"/>
<path d="M310.886 48.5952H159.042V58.0314H310.886V48.5952Z" fill="#3A77B7"/>
<path d="M165.245 57.028C167.14 57.028 168.676 55.4891 168.676 53.5908C168.676 51.6925 167.14 50.1537 165.245 50.1537C163.349 50.1537 161.813 51.6925 161.813 53.5908C161.813 55.4891 163.349 57.028 165.245 57.028Z" fill="#E6E6E6"/>
<path d="M174.559 57.028C176.454 57.028 177.991 55.4891 177.991 53.5908C177.991 51.6925 176.454 50.1537 174.559 50.1537C172.664 50.1537 171.127 51.6925 171.127 53.5908C171.127 55.4891 172.664 57.028 174.559 57.028Z" fill="#E6E6E6"/>
<path d="M183.873 57.028C185.769 57.028 187.305 55.4891 187.305 53.5908C187.305 51.6925 185.769 50.1537 183.873 50.1537C181.978 50.1537 180.442 51.6925 180.442 53.5908C180.442 55.4891 181.978 57.028 183.873 57.028Z" fill="#E6E6E6"/>
</g>
<defs>
<filter id="filter0_d" x="-6" y="379.498" width="503" height="72.5025" filterUnits="userSpaceOnUse" color-interpolation-filters="sRGB">
<feFlood flood-opacity="0" result="BackgroundImageFix"/>
<feColorMatrix in="SourceAlpha" type="matrix" values="0 0 0 0 0 0 0 0 0 0 0 0 0 0 0 0 0 0 127 0"/>
<feOffset dy="6"/>
<feGaussianBlur stdDeviation="3"/>
<feColorMatrix type="matrix" values="0 0 0 0 0 0 0 0 0 0 0 0 0 0 0 0 0 0 0.25 0"/>
<feBlend mode="normal" in2="BackgroundImageFix" result="effect1_dropShadow"/>
<feBlend mode="normal" in="SourceGraphic" in2="effect1_dropShadow" result="shape"/>
</filter>
<filter id="filter1_d" x="33.0627" y="273.221" width="32.061" height="35.3353" filterUnits="userSpaceOnUse" color-interpolation-filters="sRGB">
<feFlood flood-opacity="0" result="BackgroundImageFix"/>
<feColorMatrix in="SourceAlpha" type="matrix" values="0 0 0 0 0 0 0 0 0 0 0 0 0 0 0 0 0 0 127 0"/>
<feOffset dy="4"/>
<feGaussianBlur stdDeviation="2"/>
<feColorMatrix type="matrix" values="0 0 0 0 0 0 0 0 0 0 0 0 0 0 0 0 0 0 0.25 0"/>
<feBlend mode="normal" in2="BackgroundImageFix" result="effect1_dropShadow"/>
<feBlend mode="normal" in="SourceGraphic" in2="effect1_dropShadow" result="shape"/>
</filter>
<filter id="filter2_d" x="63.4451" y="302.097" width="32.061" height="35.3353" filterUnits="userSpaceOnUse" color-interpolation-filters="sRGB">
<feFlood flood-opacity="0" result="BackgroundImageFix"/>
<feColorMatrix in="SourceAlpha" type="matrix" values="0 0 0 0 0 0 0 0 0 0 0 0 0 0 0 0 0 0 127 0"/>
<feOffset dy="4"/>
<feGaussianBlur stdDeviation="2"/>
<feColorMatrix type="matrix" values="0 0 0 0 0 0 0 0 0 0 0 0 0 0 0 0 0 0 0.25 0"/>
<feBlend mode="normal" in2="BackgroundImageFix" result="effect1_dropShadow"/>
<feBlend mode="normal" in="SourceGraphic" in2="effect1_dropShadow" result="shape"/>
</filter>
<filter id="filter3_d" x="75.7343" y="346.49" width="32.061" height="35.3353" filterUnits="userSpaceOnUse" color-interpolation-filters="sRGB">
<feFlood flood-opacity="0" result="BackgroundImageFix"/>
<feColorMatrix in="SourceAlpha" type="matrix" values="0 0 0 0 0 0 0 0 0 0 0 0 0 0 0 0 0 0 127 0"/>
<feOffset dy="4"/>
<feGaussianBlur stdDeviation="2"/>
<feColorMatrix type="matrix" values="0 0 0 0 0 0 0 0 0 0 0 0 0 0 0 0 0 0 0.25 0"/>
<feBlend mode="normal" in2="BackgroundImageFix" result="effect1_dropShadow"/>
<feBlend mode="normal" in="SourceGraphic" in2="effect1_dropShadow" result="shape"/>
</filter>
<filter id="filter4_d" x="15.3028" y="109.659" width="140.987" height="152.099" filterUnits="userSpaceOnUse" color-interpolation-filters="sRGB">
<feFlood flood-opacity="0" result="BackgroundImageFix"/>
<feColorMatrix in="SourceAlpha" type="matrix" values="0 0 0 0 0 0 0 0 0 0 0 0 0 0 0 0 0 0 127 0"/>
<feOffset dy="5"/>
<feGaussianBlur stdDeviation="2.5"/>
<feColorMatrix type="matrix" values="0 0 0 0 0 0 0 0 0 0 0 0 0 0 0 0 0 0 0.25 0"/>
<feBlend mode="normal" in2="BackgroundImageFix" result="effect1_dropShadow"/>
<feBlend mode="normal" in="SourceGraphic" in2="effect1_dropShadow" result="shape"/>
</filter>
<filter id="filter5_d" x="154.042" y="48.5034" width="161.844" height="94.7026" filterUnits="userSpaceOnUse" color-interpolation-filters="sRGB">
<feFlood flood-opacity="0" result="BackgroundImageFix"/>
<feColorMatrix in="SourceAlpha" type="matrix" values="0 0 0 0 0 0 0 0 0 0 0 0 0 0 0 0 0 0 127 0"/>
<feOffset dy="5"/>
<feGaussianBlur stdDeviation="2.5"/>
<feColorMatrix type="matrix" values="0 0 0 0 0 0 0 0 0 0 0 0 0 0 0 0 0 0 0.25 0"/>
<feBlend mode="normal" in2="BackgroundImageFix" result="effect1_dropShadow"/>
<feBlend mode="normal" in="SourceGraphic" in2="effect1_dropShadow" result="shape"/>
</filter>
<clipPath id="clip0">
<rect width="491" height="440" fill="white"/>
</clipPath>
</defs>
</svg>
